<?xml version="1.0" standalone="no"?>
<!DOCTYPE svg PUBLIC "-//W3C//DTD SVG 20010904//EN"
 "http://www.w3.org/TR/2001/REC-SVG-20010904/DTD/svg10.dtd">
<svg version="1.0" xmlns="http://www.w3.org/2000/svg"
 width="300.000000pt" height="300.000000pt" viewBox="0 0 300.000000 300.000000"
 preserveAspectRatio="xMidYMid meet">
<metadata>
Created by potrace 1.11, written by Peter Selinger 2001-2013
</metadata>
<g transform="translate(0.000000,300.000000) scale(0.100000,-0.100000)"
fill="#000000" stroke="none">
<path d="M692 2963 c-5 -10 -8 -51 -7 -92 l3 -74 83 -79 c46 -44 116 -109 154
-145 120 -113 346 -326 385 -363 20 -19 63 -60 95 -90 l58 -55 -34 45 c-18 25
-65 83 -102 130 -38 47 -74 92 -80 100 -66 82 -218 273 -227 282 -5 7 -26 33
-46 58 -19 25 -42 53 -49 62 -13 16 -97 121 -163 206 -28 35 -57 41 -70 15z"/>
<path d="M2253 2943 c-17 -21 -54 -67 -82 -103 -28 -36 -54 -69 -59 -75 -4 -5
-61 -77 -126 -160 -64 -82 -123 -157 -131 -166 -7 -10 -37 -48 -66 -85 -30
-38 -58 -74 -64 -81 -19 -23 -132 -169 -149 -193 -6 -8 34 28 89 81 55 53 130
125 167 160 36 35 139 134 228 219 90 85 187 178 217 206 l54 51 -3 89 c-3 81
-5 89 -24 92 -14 2 -30 -9 -51 -35z"/>
<path d="M410 2895 c-16 -19 -20 -381 -5 -401 6 -7 62 -40 125 -72 119 -61
437 -224 760 -390 l185 -94 -89 83 c-50 46 -111 104 -137 129 -26 25 -93 88
-149 140 -56 52 -123 115 -150 140 -26 25 -103 97 -170 160 -68 63 -140 131
-160 150 -105 102 -181 170 -189 170 -5 0 -14 -7 -21 -15z"/>
<path d="M2564 2897 c-6 -7 -58 -55 -114 -107 -154 -143 -378 -353 -479 -449
-25 -24 -93 -87 -149 -140 -219 -203 -279 -264 -242 -244 19 10 37 20 40 23 3
3 111 58 240 123 129 65 305 154 390 198 85 44 203 105 262 135 l107 55 -1
200 c0 183 -1 200 -18 209 -23 12 -22 12 -36 -3z"/>
<path d="M48 2533 c-10 -3 -19 -8 -19 -11 -6 -31 -4 -1791 2 -1803 5 -9 111
-67 236 -129 1109 -549 1176 -581 1187 -570 7 7 11 274 11 908 0 493 -1 903
-3 909 -2 7 -110 65 -240 129 -131 64 -442 218 -692 342 -533 263 -461 229
-482 225z"/>
<path d="M2782 2460 c-88 -44 -165 -80 -171 -80 -6 0 -11 -4 -11 -10 0 -5 -4
-10 -9 -10 -5 0 -233 -110 -506 -245 -272 -135 -499 -245 -504 -245 -4 0 -15
-8 -23 -17 -14 -16 -16 -124 -16 -919 0 -496 4 -907 8 -914 6 -10 45 5 163 63
86 43 159 77 163 77 4 0 15 7 25 16 9 8 23 17 31 18 7 1 246 118 531 259 l517
256 0 63 c1 85 1 1686 0 1720 0 58 -26 54 -198 -32z"/>
</g>
</svg>
