<?xml version="1.0" encoding="UTF-8"?>
<svg fill="#fff" width="646px" height="300px" data-name="Layer 1" viewBox="0 0 1190.1 268" xmlns="http://www.w3.org/2000/svg">
<polygon points="115.25 123.15 112.73 123.78 101.39 117.48 34.01 91.03 8.19 24.91 0 10.42 0.63 9.17 15.11 17.98 81.87 44.43 108.32 111.82"/>
<polygon points="258.84 267.37 256.31 268 244.98 262.33 177.59 235.25 151.77 169.13 143.59 154.64 144.22 153.38 158.7 162.2 225.46 188.65 252.54 256.03"/>
<polygon points="0 267.37 2.52 268 13.23 262.33 81.24 235.25 106.43 169.13 115.25 154.64 114.62 153.38 99.5 162.2 32.75 188.65 6.3 256.03"/>
<polygon points="143.59 123.15 146.11 123.78 156.81 117.48 224.83 91.03 250.02 24.91 258.84 10.42 258.21 9.17 243.09 17.98 176.34 44.43 149.89 111.82"/>
<polygon points="742.11 43 742.11 0 721.11 0 721.11 19.87 721.11 42.16 721.11 59.13 721.11 98.39 721.11 158 742.11 158 742.11 61 766.11 61 766.11 43"/>
<path transform="translate(-2.89)" d="M1154.14,22.76A20,20,0,0,1,1155.6,15,18.41,18.41,0,0,1,1160,8.73a17.2,17.2,0,0,1,6.32-3.87,19.52,19.52,0,0,1,7.29-1.45,17.8,17.8,0,0,1,7.29,1.45,27.6,27.6,0,0,1,6.32,3.87c1.94,1.94,2.92,3.87,4.37,6.29a20,20,0,0,1,1.46,7.74,20,20,0,0,1-1.46,7.74,18.36,18.36,0,0,1-4.37,6.29,17.17,17.17,0,0,1-6.32,3.87,19.57,19.57,0,0,1-7.29,1.45,17.8,17.8,0,0,1-7.29-1.45,27.65,27.65,0,0,1-6.32-3.87,18.4,18.4,0,0,1-4.37-6.29,21.86,21.86,0,0,1-1.46-7.74m3.4,0a17,17,0,0,0,1.46,6.77,20,20,0,0,0,3.4,5.32,17.44,17.44,0,0,0,4.86,3.39,13.5,13.5,0,0,0,6.31,1.45c2.43,0-1.63,4.52.32,3.55s9.4-6.93,10.86-8.39a20,20,0,0,0,3.4-5.32,15.39,15.39,0,0,0,1.46-6.77,13.33,13.33,0,0,0-1.46-6.29,20,20,0,0,0-3.4-5.32,17.48,17.48,0,0,0-4.86-3.39,14.46,14.46,0,0,0-12.63,0,17.34,17.34,0,0,0-4.86,3.39,20,20,0,0,0-3.4,5.32,12.09,12.09,0,0,0-1.46,6.29M1166.19,11h9.14c5.59.33,8.12,2.21,8.12,6.46,0,.94,0,1.89-.51,2.36s-.51,1.42-1.52,1.89a2.71,2.71,0,0,1-2,.94,4,4,0,0,1-2.54.47l6.6,8.87h-6l-5.22-8H1169v8h-4V11h1.19ZM1170,22h5.68a2.89,2.89,0,0,0,1.9-.47c.47,0,.95-.47,1.42-.93V18.27c0-.93,0-1.4-.47-1.87s-.47-.93-.95-.93-.95-.47-1.42-.47H1170v7Z"/>
<path transform="translate(-2.89)" d="M1046.78,99.09c0-31,22.83-61,62.17-61s62.17,30.48,62.17,61.44-22.83,61-62.17,61c-38.85,0-62.17-30-62.17-61.44Zm22.34.48c0,23.22,17.48,40.15,39.83,40.15s39.83-17.41,39.83-40.63-17.49-40.63-39.83-40.63c-22.34.48-39.83,17.41-39.83,41.12Z"/>
<path transform="translate(-2.89)" d="M333.5,42H356V59.89c5.32-11.6,18.85-21.27,39.63-21.27C432.85,39.1,443,66.17,443,90.35V159H421V95.63c0-21.29-8.37-36.28-31.51-35.8-22.15,0-32.49,14-32.49,34.35V159H334V42h-.5Z"/>
<path transform="translate(-2.89)" d="M476.61,109.84c1,22,21.86,34.06,39.34,34.06,16,0,34-19.9,34-19.9h23.18c-5.81,13-14.05,22.68-23.74,29-9.69,6.76-21.8,9.65-33.43,9.65-38.28,0-62-30.89-62-61.77a62.42,62.42,0,0,1,105.63-44.4c14.05,14,19.87,32.34,17.93,51.64l-100.88,1.77ZM554.81,90c-1-15.48-16.51-32.9-38.86-32.41C493.12,57.59,478.07,74,477.1,90Z"/>
<polygon points="607.11 42 607.11 0 584.11 0 584.11 18.85 584.11 42.04 584.11 59.44 584.11 107.77 584.11 159 607.11 159 607.11 60 630.11 60 630.11 42"/>
<path transform="translate(-2.89)" d="m1018 0h23v23h-23zm0 43h23v117h-23z"/>
<path transform="translate(-2.89)" d="M1010,158H988V137.83c-6.27,12.09-19.39,23.7-43.67,23.7-36.43,0-59.74-28.06-59.74-61.44,0-35.8,26.23-61,59.26-61C967.64,39.14,987,61.4,987,61.4V0h23V158ZM906.93,100.09c0,21.28,15.06,40.63,40.8,40.63a42,42,0,0,0,29.14-12.09,38.9,38.9,0,0,0,11.17-29,39.29,39.29,0,0,0-11.66-28.54,40.46,40.46,0,0,0-28.66-11.61c-24.28,0-40.8,18.86-40.8,40.63Z"/>
<path transform="translate(-2.89)" d="M877,160H855V141.89c-5.38,12.24-18.57,21.54-39.59,21.54C777.78,163.43,768,136,768,111.53V43h23v62.89c0,20.8,8.11,35.8,30.52,35.8,21.46-.48,31.48-14,31.48-33.86V43h23V158l1,1.77Z"/>
<path transform="translate(-2.89)" d="M693,74c0-9.32-5.42-16.19-17.24-15.7-10.84,0-17.24,7.36-16.75,15.21.49,9.32,8.87,13.74,21.68,17.18C698.91,95.59,718.62,101,719.11,126c.49,23.06-18.72,38.27-42.37,38.27-18.72,0-41.88-10.8-42.86-37.29H656c1,14.23,12.32,19.14,20.69,19.14,10.84,0,19.21-7.36,19.21-17.67,0-11.78-9.36-15.71-30.06-22.57-16.75-4.9-29.56-12.76-29.56-30.42,0-22.08,18.23-35.82,39.91-35.82,16.26,0,37.44,7.85,39.41,34.35H693Z"/>
</svg>
